<?xml version="1.0" encoding="UTF-8"?>
<svg id="e0b35d3b-637f-4cd2-a9fd-b6e76c92ec56" xmlns="http://www.w3.org/2000/svg" viewBox="0 0 912.92 680.23">
  <defs>
    <style>
      .cls-1 {
        fill: #2f2e41;
      }

      .cls-2 {
        fill: #3f3d56;
      }

      .cls-3 {
        fill: #ffb9b9;
      }

      .cls-4 {
        fill: #976a47;
      }

      .cls-5 {
        fill: #8a1e41;
      }

      .cls-6 {
        fill: #f2f2f2;
      }
    </style>
  </defs>
  <rect class="cls-2" x="102" y="641.27" width="556.11" height="2.36"/>
  <path class="cls-3" d="M396.92,316.38s-11.8,53.11,11.8,43.67,9.44-46.03,9.44-46.03l-21.24,2.36Z"/>
  <path class="cls-3" d="M617.61,334.08s28.32,34.23,10.62,41.31-27.14-31.87-24.78-35.41,14.16-5.9,14.16-5.9Z"/>
  <circle class="cls-3" cx="550.34" cy="56.73" r="35.41"/>
  <polygon class="cls-3" points="523.79 70.3 519.07 106.89 558.01 121.05 566.28 79.75 523.79 70.3"/>
  <path class="cls-4" d="M545.62,106.3s-20.01-9.88-24.17-17.92l-8.88,8.48s-63.73-5.9-73.17,25.96c-9.44,31.87-1.18,147.53-1.18,147.53,0,0-12.98,51.93-9.44,53.11s47.21,22.42,108.58,10.62c0,0,27.14-4.72,31.87-1.18s-2.36-56.65-2.36-56.65c0,0,47.21-106.22,38.95-119.2s-44.85-40.13-44.85-40.13l2.36-12.98s-16.52,7.08-17.7,2.36Z"/>
  <path class="cls-4" d="M448.85,114.56s-21.24,10.62-24.78,27.14c-3.54,16.52-36.59,153.43-33.05,161.69s2.36,18.88,2.36,18.88l30.69-3.54s-5.9-8.26-2.36-11.8,7.08-15.34,4.72-20.06-4.72,3.54,8.26-11.8,42.49-155.79,14.16-160.51Z"/>
  <path class="cls-4" d="M598.73,154.69s10.03,.59,12.39,17.11,6.49,118.61,6.49,118.61c0,0,15.34,33.05,9.44,37.77s-2.36,11.8-2.36,11.8l-21.24,5.9-46.03-71.99,41.31-119.2Z"/>
  <path class="cls-1" d="M432.32,318.74s-7.08,1.18-7.08,27.14-12.98,106.22-4.72,119.2,9.44,129.82,9.44,129.82c0,0,22.42,9.44,41.31-21.24l2.36-16.52,4.72-80.25,18.88-100.32,25.96,110.94s-3.54,133.36,9.44,133.36,37.77-10.62,37.77-10.62c0,0,5.9-11.8,3.54-17.7s-4.72-4.72-2.36-9.44,5.9-127.46,5.9-127.46c0,0-4.72-126.28-10.62-129.82s-134.54-7.08-134.54-7.08Z"/>
  <path class="cls-5" d="M432.32,590.18l-18.88,20.06s-34.23,31.87-4.72,33.05,46.03-18.88,46.03-21.24,1.18-10.62,9.44-10.62,28.32-20.06,23.6-28.32-18.88-11.8-18.88-11.8l-36.59,18.88Z"/>
  <path class="cls-5" d="M533.82,616.15s-14.16,28.32-5.9,34.23,10.62,8.26,10.62,8.26c0,0,7.08-1.18,5.9,9.44s42.49,16.52,44.85,8.26,1.18-24.78-3.54-29.51-18.88-37.77-18.88-37.77c0,0-15.34-17.7-33.05,7.08Z"/>
  <path class="cls-5" d="M586.08,28.3l6.67-.95s-9.29-17.09-27.26-20.19l6.31-4.26s-10.96-7.83-25.13,2.24c-7.45,5.29-16.09,11.54-22.45,19.41l-6.51-1.59,1.25,6.64-10.97,3.66,10.02,1.31c-1.38,3.13-2.29,6.45-2.69,9.85-.39,3.4,.56,6.83,2.65,9.54h0s11.35-13.75,11.94-16.19l-1.49,6.08s7.41-3.99,8.3-7.64l2.27,5.07,3.29-6.28,18.8,11.68-1.98-6.28,12.26,4.93-3.34-7.9s12.43,11.41,11.35,18.24c-1.08,6.82,1.57,14.19,1.57,14.19,0,0,18.9-28.52,5.12-41.55Z"/>
  <rect class="cls-2" x="723.92" y="429.45" width="189" height="2.26"/>
  <rect class="cls-4" x="160.9" y="603.71" width="45.56" height="45.56"/>
  <path class="cls-2" d="M200.46,643.27h-47.96v-47.96h47.96v47.96Zm-45.56-2.4h43.16v-43.16h-43.16v43.16Z"/>
  <rect class="cls-6" x="231.81" y="210.21" width="30.91" height="29.84" transform="translate(-64.56 104.35) rotate(-21.14)"/>
  <path class="cls-5" d="M261.85,231.27l-30.35,11.74-11.33-29.3,30.35-11.74,11.33,29.3Zm-29.4,9.69l27.31-10.56-10.2-26.37-27.31,10.56,10.2,26.37Z"/>
  <rect class="cls-5" x="752.02" y="519.72" width="29.84" height="30.91" transform="translate(-132.33 278.42) rotate(-18.97)"/>
  <path class="cls-5" d="M760.25,549.52l-10.58-30.77,29.71-10.21,10.58,30.77-29.71,10.21Zm-8.57-29.74l9.52,27.69,26.74-9.19-9.52-27.69-26.74,9.19Z"/>
  <path class="cls-5" d="M143.34,399.62c16.9,.36,30.35,12.61,30.35,12.61,0,0-13.96,11.66-30.86,11.3s-30.35-12.61-30.35-12.61c0,0,13.96-11.66,30.86-11.3Z"/>
  <path class="cls-5" d="M58.36,341.92c15.27,7.26,32.78,2.34,32.78,2.34,0,0-7.25-16.68-22.52-23.94s-32.78-2.34-32.78-2.34c0,0,7.25,16.68,22.52,23.94Z"/>
  <path class="cls-5" d="M59.91,334.71c16.84-1.54,31.57,9.12,31.57,9.12,0,0-12.56,13.16-29.4,14.7s-31.57-9.12-31.57-9.12c0,0,12.56-13.16,29.4-14.7Z"/>
  <path class="cls-5" d="M121.63,337.63c-1.61,16.83,8.98,31.62,8.98,31.62,0,0,13.21-12.5,14.83-29.33s-8.98-31.62-8.98-31.62c0,0-13.21,12.5-14.83,29.33Z"/>
  <path class="cls-5" d="M200.93,440.85c-8.83,14.42-5.79,32.35-5.79,32.35,0,0,17.36-5.44,26.19-19.86s5.79-32.35,5.79-32.35c0,0-17.36,5.44-26.19,19.86Z"/>
  <path class="cls-2" d="M175.31,597.6l1.29-.87c-4.54-6.58-7.01-14.37-7.12-22.36,.04-11.69,5.78-22.51,11.33-32.97,1.03-1.94,2.06-3.88,3.05-5.81,4.15-7.89,7.46-16.19,9.87-24.77,8.62-32.02,.13-69.8-22.69-101.05-18.11-24.8-45.1-46.48-82.52-66.29l-.73,1.37c37.21,19.7,64.03,41.23,81.99,65.83,22.55,30.88,30.94,68.17,22.45,99.73-2.38,8.47-5.65,16.67-9.75,24.46-.99,1.93-2.01,3.85-3.04,5.79-5.64,10.63-11.48,21.62-11.52,33.69,.1,8.31,2.67,16.39,7.38,23.23Z"/>
  <circle class="cls-5" cx="14.76" cy="330.77" r="14.76"/>
  <polygon class="cls-1" points="818.04 417.93 628.11 349.71 662.02 255.3 780.28 226.29 851.95 323.51 818.04 417.93"/>
  <path class="cls-6" d="M795.03,399.2l-141.94-54.11c36.85-49.36,53.33-84.17,53.34-138.96l141.94,54.11c-32.98,46.84-46.77,82.05-53.34,138.96Z"/>
  <rect class="cls-2" x="766.96" y="216" width="3.66" height="78.7" transform="translate(256.35 882.76) rotate(-69.13)"/>
  <rect class="cls-2" x="761.74" y="229.68" width="3.66" height="78.7" transform="translate(240.21 886.69) rotate(-69.13)"/>
  <rect class="cls-2" x="756.53" y="243.36" width="3.66" height="78.7" transform="translate(224.07 890.63) rotate(-69.13)"/>
  <rect class="cls-2" x="751.31" y="257.04" width="3.66" height="78.7" transform="translate(207.93 894.56) rotate(-69.13)"/>
  <rect class="cls-2" x="746.1" y="270.72" width="3.66" height="78.7" transform="translate(191.79 898.5) rotate(-69.13)"/>
  <rect class="cls-2" x="740.88" y="284.4" width="3.66" height="78.7" transform="translate(175.65 902.43) rotate(-69.13)"/>
  <rect class="cls-2" x="735.67" y="298.08" width="3.66" height="78.7" transform="translate(159.51 906.37) rotate(-69.13)"/>
  <rect class="cls-2" x="730.45" y="311.76" width="3.66" height="78.7" transform="translate(143.37 910.3) rotate(-69.13)"/>
  <polygon class="cls-2" points="813.66 430.14 623.72 361.93 662.02 255.3 742.23 330.5 851.95 323.51 813.66 430.14"/>
  <polygon class="cls-5" points="717.15 396.55 622.44 362.53 645.52 298.28 647.4 298.95 625 361.32 717.82 394.66 717.15 396.55"/>
  <rect class="cls-5" x="661.7" y="314.03" width="11.8" height="29.51" transform="translate(132.51 845.95) rotate(-70.24)"/>
  <polygon class="cls-2" points="369.52 642.11 220.86 642.03 222.03 558.58 295.91 591.78 370.69 560.66 369.52 642.11"/>
  <rect class="cls-5" x="239.16" y="597.57" width="8.69" height="21.74" transform="translate(-368.28 843.41) rotate(-89.2)"/>
  <polygon class="cls-5" points="371.18 560.54 296.04 598.85 221.64 560.54 221.64 558.33 371.18 558.33 371.18 560.54"/>
  <ellipse class="cls-5" cx="779.79" cy="235.76" rx="9.03" ry="25" transform="translate(281.74 880.43) rotate(-69.13)"/>
  <path class="cls-5" d="M823.56,102.55c-20.04-6.23-41.34,4.96-47.57,25-6.23,20.04,10.75,93.4,10.75,93.4,0,0,55.59-50.8,61.82-70.84,6.23-20.04-4.96-41.34-25-47.57Zm-16.63,53.47c-9.49-2.95-14.8-13.04-11.84-22.53s13.04-14.8,22.53-11.84c9.49,2.95,14.8,13.04,11.84,22.53-2.95,9.49-13.04,14.8-22.53,11.84h0Z"/>
</svg>