<?xml version="1.0" encoding="UTF-8"?>
<svg xmlns="http://www.w3.org/2000/svg" viewBox="0 0 456.65 472.93">
  <defs>
    <style>
      .cls-1 {
        fill: #fff;
      }

      .cls-2 {
        fill: #fafafa;
      }

      .cls-3 {
        fill: #f5f5f5;
      }

      .cls-4 {
        fill: #455a64;
      }

      .cls-5 {
        opacity: .2;
      }

      .cls-6 {
        fill: #ffbf9d;
      }

      .cls-7, .cls-8 {
        opacity: .3;
      }

      .cls-7, .cls-9 {
        fill: #8a1e41;
      }

      .cls-10 {
        fill: #e0e0e0;
      }

      .cls-11 {
        fill: #ff9a6c;
      }

      .cls-12 {
        fill: #ebebeb;
      }

      .cls-13 {
        fill: #976a47;
      }

      .cls-14 {
        fill: #263238;
      }
    </style>
  </defs>
  <g id="Background_Complete" data-name="Background Complete">
    <g>
      <g>
        <path class="cls-10" d="M347.49,11.91l-29.25,14.67c-2.19,.93-3.61,3.08-3.61,5.46v13.68c0,12.22,3.41,24.34,10.43,35.03,5.27,8.03,12.26,18.29,23.88,24.16h5.25c12.94-3.95,22.6-14.47,28.51-23.47,7.02-10.69,10.43-22.81,10.43-35.03v-14.37c0-2.38-1.42-4.52-3.61-5.46l-33.32-14.2c-1.49-.63-7.23-1.11-8.72-.47Z"/>
        <path class="cls-3" d="M346.31,12.39l-33.32,14.2c-2.19,.93-3.61,3.08-3.61,5.46v13.68c0,12.22,3.41,24.34,10.43,35.03,5.91,9,15.05,18.27,29.13,24.16,12.94-3.95,22.6-14.47,28.51-23.47,7.02-10.69,10.43-22.81,10.43-35.03v-14.37c0-2.38-1.42-4.52-3.61-5.46l-33.32-14.2c-1.49-.63-3.16-.63-4.65,0Z"/>
        <path class="cls-10" d="M387.78,42.7s.04,.22,.06,.63c.02,.47,.05,1.07,.08,1.81,.03,.79,.08,1.75,.02,2.87-.06,1.12,0,2.4-.17,3.8-.13,1.4-.23,2.95-.52,4.58-.13,.82-.24,1.67-.41,2.54-.19,.87-.38,1.75-.57,2.67-.87,3.63-2.08,7.57-3.84,11.5-1.77,3.93-3.86,7.48-5.98,10.56-1.11,1.5-2.13,2.95-3.23,4.2-.54,.63-1.03,1.27-1.56,1.83-.53,.56-1.04,1.1-1.52,1.61-.94,1.05-1.91,1.88-2.72,2.66-.8,.78-1.55,1.4-2.16,1.89-.58,.47-1.05,.84-1.41,1.14-.33,.26-.5,.38-.51,.37-.01-.01,.14-.17,.45-.45,.35-.31,.8-.71,1.35-1.21,.59-.51,1.31-1.15,2.1-1.95,.79-.79,1.73-1.64,2.66-2.7,.47-.52,.97-1.06,1.49-1.62,.52-.57,1-1.2,1.52-1.83,1.08-1.25,2.08-2.7,3.17-4.2,2.08-3.07,4.14-6.59,5.9-10.5,1.75-3.9,2.96-7.81,3.85-11.4,.2-.9,.4-1.79,.59-2.64,.18-.86,.29-1.71,.43-2.52,.31-1.62,.42-3.16,.58-4.55,.19-1.39,.16-2.67,.25-3.78,.08-1.11,.07-2.07,.07-2.86,0-.74,.01-1.34,.02-1.81,0-.41,.02-.63,.04-.63Z"/>
      </g>
      <polygon class="cls-1" points="346.15 72.45 327.04 57.25 332.34 50.58 345.16 60.77 363.88 39.83 370.23 45.5 346.15 72.45"/>
    </g>
    <g>
      <path class="cls-12" d="M436.43,86.77h-3.62v-19.68c0-4.63-3.77-8.4-8.4-8.4s-8.4,3.77-8.4,8.4v19.68h-3.62v-19.68c0-6.63,5.39-12.02,12.02-12.02s12.02,5.39,12.02,12.02v19.68Z"/>
      <rect class="cls-12" x="408.21" y="73.41" width="32.39" height="25.39" rx="3.08" ry="3.08"/>
      <path class="cls-2" d="M426.89,86.77c.63-.64,1.03-1.51,1.03-2.49,0-1.97-1.6-3.56-3.56-3.56s-3.56,1.6-3.56,3.56c0,1.63,1.1,2.99,2.59,3.41l-.77,3.39h3.39l-.68-3.39c.6-.17,1.14-.49,1.57-.92"/>
    </g>
    <g>
      <g>
        <path class="cls-10" d="M25.32,374.16c-3.86-2.43-8.29-3.95-12.83-4.42-2.1-.22-4.39-.15-6.07,1.12-.36,.27-.7,.67-.62,1.11,.06,.32,.33,.56,.59,.76,5.22,3.98,13.12,4.49,18.93,1.43"/>
        <path class="cls-10" d="M24.99,373.8c-2.9-2.27-5.83-4.55-8.29-7.29-2.46-2.74-4.46-6-5.2-9.61-.22-1.1-.29-2.35,.41-3.22,6.61,5.16,11.8,11.83,13.07,20.12"/>
        <path class="cls-10" d="M25.25,374.11c-.5-3.61-.68-7.33,.15-10.88,.83-3.55,2.76-6.95,5.8-8.98,1.14,2.67,.65,5.74-.15,8.53-1.24,4.31-3.19,8.41-5.75,12.1"/>
        <path class="cls-10" d="M31.73,385.71c-3.93,.48-7.36,2.55-10.29,5.21-2.94,2.66-5.02,6.24-5.89,10.1,3.86-.24,7.13-2.96,9.5-6.01,2.37-3.05,4.02-6.39,6.62-9.25"/>
        <path class="cls-10" d="M33.13,387.57c-3.17-7.8-2.02-17.2,2.93-24.01,2.24,7.97,1.42,16.97-2.93,24.01"/>
        <path class="cls-10" d="M41.69,397.76c-3.57-.22-7.2,.63-10.29,2.41-3.1,1.78-5.65,4.49-7.26,7.69-.22,.43-.41,.99-.12,1.38,.25,.34,.74,.37,1.16,.34,3.46-.22,6.52-2.3,9.05-4.67,2.53-2.37,4.73-5.11,7.53-7.16"/>
        <path class="cls-10" d="M41.42,397.2c-1.84-5.89-1.95-12.31-.33-18.26,.64-2.35,1.72-4.82,3.9-5.93,.19-.09,.4-.18,.6-.1,.18,.07,.29,.26,.38,.44,.77,1.62,1,3.45,.92,5.24-.08,1.79-.45,3.55-.82,5.3-.68,3.24-1.05,6.72-2.83,9.52-.42,.66-.79,1.38-1.13,2.09-.34,.71-.34,.96-.65,1.53"/>
        <path class="cls-10" d="M64.07,400.58c-1.68-6.38,.1-14.12,4.13-19.36,.3-.39,.69-.8,1.17-.75,.74,.07,.93,1.06,.9,1.8-.29,6.52-2.47,12.95-6.2,18.31"/>
        <path class="cls-10" d="M66.11,401.97c7.76,2.02,16.65,.06,23.1-4.7-3.82-1.94-8.33-2.49-12.51-1.53-4.18,.96-8,2.83-10.6,6.23"/>
        <path class="cls-10" d="M67.83,397.72c4.34-7.08,12.67-11.7,20.97-12.12-.96,3.37-3.73,6-6.86,7.58-3.13,1.58-6.62,2.27-10.06,2.94-1.34,.26-3.18,.55-4.04,1.6"/>
        <path class="cls-10" d="M64.5,377.1c1.18-4.03,2.36-8.09,2.68-12.28,.32-4.19-.27-8.55-2.45-12.15-4.06,7.85-4.47,17.02-.36,24.85"/>
        <path class="cls-10" d="M78.16,370.2c4.74-8.62,14.42-15.51,24.22-16.48-3.78,9.41-14.08,16.68-24.22,16.48"/>
        <path class="cls-10" d="M75.18,371.89c7.08,1.08,13.1,5.6,19.72,8.34,1.41,.59,2.94,1.05,4.46,.85,1.52-.2,3.02-1.22,3.36-2.71,.28-1.24-.28-2.55-1.17-3.46-.89-.91-2.06-1.48-3.24-1.96-7.2-3-14.93-3.07-22.51-1.25"/>
        <path class="cls-10" d="M71.08,376.85c1.6,.46,2.15,1.29,3.42,2.37,4.3,3.67,9.47,6.32,14.95,7.68,.57,.14,1.32,.2,1.6-.32,.25-.45-.07-1-.39-1.4-2.3-2.88-5.58-4.84-9.03-6.13-3.45-1.29-6.44-2.83-10.56-2.5"/>
        <path class="cls-10" d="M66.46,346.87c5.75,5.37,13.86,8.13,21.69,7.38,.36-.03,.75-.09,.99-.35,.55-.59-.11-1.51-.75-2.01-6.38-4.97-14.1-7.03-21.94-5.02"/>
        <path class="cls-10" d="M71.94,344.87c7.61-5.7,18.04-7.42,27.07-4.47-3.41,3.36-8.14,5.17-12.9,5.66-4.76,.5-9.53-.03-14.17-1.2"/>
        <path class="cls-10" d="M69.76,331.09c-.63-6.37-.22-11.39-.66-17.79-.04-.51-.15-1.13-.62-1.31-.67-.26-1.22,.56-1.44,1.24-1.9,5.9-.86,12.66,2.71,17.72"/>
        <path class="cls-10" d="M69.3,331.8c4.31-2.67,7.55-6.15,10.55-10.25,2.08-2.85,3.84-6.26,3.37-9.76-2.92-.06-5.7,1.55-7.61,3.78-1.9,2.22-3.03,5-3.88,7.8-.84,2.8-1.44,5.68-2.43,8.43"/>
        <path class="cls-10" d="M79.66,328.92c9.47-3.5,18.3-8.71,25.95-15.3-3.1-1.25-6.65-.5-9.75,.75-7.08,2.86-12.87,7.68-16.34,14.48"/>
        <path class="cls-10" d="M72.22,335.28c4.79,.52,9.66,.86,14.41,.07,4.67-.78,9.09-2.63,13.45-4.47,.36-.15,.76-.33,.91-.69,.17-.39-.01-.86-.33-1.15-.32-.29-.74-.42-1.15-.54-4.75-1.33-9.87-.71-14.54,.87-4.67,1.57-8.5,3.45-12.76,5.91"/>
        <path class="cls-10" d="M44.86,347.09c-3.27-6.6-3.06-14.3-.23-21.1,1.99,3.03,2.23,6.89,1.87,10.49-.36,3.6-1.46,7.31-1.53,10.94"/>
        <path class="cls-10" d="M31.8,340.51c-8.16-.16-16.32,3.32-21.87,9.31,4.07,.64,8.27-.41,11.97-2.22,3.7-1.81,7-4.35,10.26-6.87"/>
        <path class="cls-10" d="M23.02,337.57c-3.99-.32-7.83-.82-11.67,.36-3.84,1.18-7.33,3.85-8.9,7.54,3.73,.42,7.52-.52,10.94-2.07,3.42-1.55,6.53-3.7,9.63-5.84"/>
        <path class="cls-10" d="M36.02,337.7c-3.59-2.35-7.28-4.75-11.46-5.72-4.18-.97-9.03-.25-11.94,2.9,3.39,1.99,7.49,2.22,11.42,2.22,3.93,0,8.74-.05,12.44,1.26"/>
        <path class="cls-10" d="M36.04,337.89c-6.14-6.03-8.47-16.86-6-25.1,4.83,7.33,6.99,16.38,6,25.1"/>
        <path class="cls-10" d="M52.93,320.81c1.16-2.69,1.97-5.52,3.01-8.26,1.04-2.74,2.33-5.44,4.29-7.61,1.96-2.18,4.68-3.8,7.6-3.94-1.83,8.3-7.34,15.71-14.76,19.85"/>
        <path class="cls-10" d="M49.87,324.37c-1.92-2.64-4.13-6.22-6.73-8.19-2.6-1.97-5.98-3.16-9.15-2.4,3.23,5.77,9.32,9.83,15.88,10.59"/>
        <path class="cls-10" d="M50.48,321.03c-1.26-3.19-2.52-6.42-3.03-9.81-.51-3.39-.2-7.02,1.54-9.97,3.37,6.37,4.46,13.21,1.67,19.86"/>
        <path class="cls-10" d="M52.96,301.25c1.91-6.32,7.69-10.97,13.94-13.1,.79-.27,1.62-.49,2.44-.37s1.63,.69,1.8,1.5c.23,1.07-.66,2.04-1.49,2.75-4.86,4.16-10.58,7.31-16.69,9.21"/>
        <path class="cls-10" d="M53.03,296.08c.24-4.07,.5-8.2,1.82-12.06,1.32-3.86,3.88-7.48,7.59-9.17,.63,4.11-1.18,8.2-3.37,11.74s-4.83,6.88-6.14,10.83"/>
        <path class="cls-10" d="M52.93,298.88c-1.58-4.6-1.74-10.45-4.5-14.46-1.93-2.8-5.01-4.71-6.67-7.68-1.1,2.77-.77,5.97,.39,8.72s3.06,5.12,5.1,7.3c2.04,2.18,3.79,3.82,5.68,6.12"/>
        <path class="cls-10" d="M52.96,434.44c-.12,0-.23-30.71-.24-68.57,0-37.88,.08-68.58,.21-68.58s.23,30.7,.24,68.58c0,37.87-.08,68.57-.21,68.57Z"/>
        <path class="cls-10" d="M79.79,342.46s-.4,.18-1.15,.43c-.83,.28-1.9,.64-3.18,1.07-2.68,.91-6.36,2.23-10.35,3.87-3.95,1.7-7.68,3.07-9.81,4.91-1.06,.91-1.67,1.89-1.97,2.61-.3,.72-.36,1.16-.4,1.15-.02,0-.01-.11,.01-.32,.04-.21,.09-.52,.23-.89,.26-.76,.85-1.81,1.92-2.78,1.07-.97,2.55-1.85,4.26-2.64,1.7-.79,3.59-1.62,5.59-2.45,4.01-1.64,7.72-2.92,10.42-3.76,1.35-.42,2.46-.73,3.22-.94,.77-.2,1.2-.3,1.2-.27Z"/>
        <path class="cls-10" d="M88.59,320.85s-.1,.13-.32,.35c-.26,.25-.59,.55-.99,.93-.92,.83-2.16,1.96-3.68,3.34-3.18,2.83-7.48,6.66-12.24,10.9-4.78,4.25-8.91,8.32-11.77,11.38-1.43,1.53-2.56,2.79-3.33,3.68-.36,.41-.65,.75-.89,1.02-.21,.23-.32,.35-.33,.34-.01,0,.08-.14,.26-.39,.19-.25,.46-.61,.83-1.07,.73-.92,1.83-2.22,3.23-3.78,2.81-3.12,6.92-7.24,11.71-11.5,4.8-4.24,9.16-8.06,12.33-10.81,1.56-1.34,2.83-2.43,3.77-3.24,.42-.35,.76-.63,1.04-.86,.24-.19,.37-.29,.38-.28Z"/>
        <path class="cls-10" d="M66.2,340.69c-.13-.06,.87-2.36,1.87-5.28,1-2.91,1.48-5.38,1.6-5.35,.12,.01-.17,2.54-1.18,5.5-.5,1.47-1.05,2.77-1.49,3.69-.44,.92-.75,1.47-.8,1.44Z"/>
        <path class="cls-10" d="M52.99,359.28s-.29-.29-.74-.85c-.5-.64-1.13-1.45-1.89-2.42-1.58-2.05-3.78-4.88-6.23-7.97-2.46-3.09-4.71-5.87-6.35-7.88-.77-.95-1.42-1.75-1.93-2.39-.45-.57-.69-.89-.67-.91,.02-.02,.31,.27,.8,.8,.49,.53,1.19,1.32,2.04,2.3,1.7,1.96,4,4.71,6.46,7.8,2.46,3.1,4.61,5.96,6.13,8.06,.76,1.05,1.37,1.91,1.77,2.51,.41,.6,.62,.94,.6,.96Z"/>
        <path class="cls-10" d="M47.1,351.72c-.07,.08-1.64-1.78-2.46-4.61-.61-1.99-.63-3.82-.56-4.65l.2,.02c-.09,.36-.15,.54-.19,.54-.03,0-.04-.2,0-.57l.2,.02c.07,.83,.2,2.59,.79,4.53,.79,2.74,2.16,4.67,2.04,4.74Z"/>
        <path class="cls-10" d="M39.51,342.17c-.06,.06-.56-.58-1.72-1-1.15-.44-2.88-.54-4.78-.38-1.9,.14-3.6,.48-4.81,.78-1.21,.3-1.96,.54-1.98,.48-.02-.05,.69-.39,1.9-.78,1.21-.38,2.93-.77,4.86-.92,1.92-.17,3.74-.02,4.93,.53,1.2,.53,1.64,1.28,1.6,1.29Z"/>
        <path class="cls-10" d="M37.71,339.85c-.03,.07-1-.4-2.64-.96-1.63-.56-3.95-1.15-6.58-1.35-2.62-.2-5.01,.03-6.71,.34-1.7,.3-2.73,.62-2.75,.55,0-.03,.24-.13,.7-.3,.46-.17,1.14-.37,1.99-.56,1.7-.39,4.13-.68,6.8-.48,2.67,.21,5.03,.86,6.65,1.5,.81,.32,1.46,.62,1.88,.85,.43,.23,.66,.37,.65,.4Z"/>
        <path class="cls-10" d="M52.93,330.06c-.12,.03-.98-2.96-1.92-6.68-.94-3.72-1.61-6.76-1.49-6.79,.12-.03,.98,2.96,1.92,6.68,.94,3.72,1.61,6.76,1.49,6.79Z"/>
        <path class="cls-10" d="M53.05,330.06c-.13,.04-.69-1.96-2.13-4-1.41-2.09-3.2-3.13-3.14-3.24,.02-.05,.52,.14,1.21,.62,.69,.48,1.55,1.3,2.29,2.36,1.5,2.13,1.88,4.25,1.77,4.25Z"/>
        <path class="cls-10" d="M52.96,418.07s-.14-.74-.48-2.04c-.34-1.3-.99-3.15-2.05-5.32-2.12-4.34-5.98-9.83-10.89-15.34-2.43-2.78-4.79-5.4-6.79-7.91-2-2.5-3.65-4.89-4.86-7-1.21-2.11-1.99-3.92-2.45-5.2-.23-.64-.39-1.14-.48-1.49-.1-.34-.14-.53-.13-.53,.04-.01,.26,.7,.77,1.95,.51,1.25,1.33,3.03,2.56,5.1,1.23,2.08,2.89,4.43,4.9,6.9,2.01,2.48,4.37,5.09,6.81,7.87,4.92,5.52,8.77,11.09,10.84,15.49,1.04,2.2,1.64,4.08,1.94,5.41,.14,.67,.24,1.18,.27,1.54,.04,.35,.06,.54,.04,.54Z"/>
        <path class="cls-10" d="M77.21,390.68s-.45,.27-1.27,.71c-.81,.46-1.97,1.16-3.3,2.18-1.32,1.01-2.81,2.35-4.33,3.95-1.52,1.61-3.08,3.47-4.68,5.47-3.19,4.01-6.18,7.55-7.97,10.38-.91,1.4-1.57,2.59-2,3.42-.44,.83-.67,1.29-.7,1.28-.01,0,.03-.13,.12-.36,.09-.23,.22-.57,.43-1,.39-.86,1.01-2.07,1.89-3.51,1.74-2.9,4.7-6.49,7.89-10.49,1.6-2,3.18-3.87,4.73-5.47,1.55-1.6,3.07-2.92,4.44-3.92,1.36-.99,2.56-1.67,3.4-2.08,.42-.21,.76-.34,.99-.44,.23-.09,.35-.14,.36-.12Z"/>
        <path class="cls-10" d="M77.68,399.57c0,.06-1.03,.19-2.69,.39-1.65,.21-3.96,.49-6.37,1.25-2.4,.78-4.4,1.98-5.7,2.99-1.31,1.02-1.93,1.86-2,1.81-.02-.02,.11-.24,.4-.62,.29-.38,.76-.88,1.4-1.43,1.28-1.1,3.3-2.37,5.77-3.17,2.47-.78,4.81-1.01,6.48-1.14,1.67-.12,2.71-.14,2.72-.08Z"/>
        <path class="cls-10" d="M61.71,405.03c-.14-.08,1.07-1.93,2.01-4.42,.88-2.51,1.09-4.71,1.25-4.68,.06,0,.05,.56-.04,1.44-.11,.88-.32,2.11-.78,3.4-.47,1.29-1.08,2.36-1.56,3.11-.48,.75-.82,1.18-.87,1.15Z"/>
        <path class="cls-10" d="M85.06,366.83s-.14,.09-.43,.23c-.33,.15-.75,.34-1.26,.57-.55,.24-1.22,.54-1.98,.94-.76,.39-1.64,.79-2.57,1.35-.47,.27-.96,.54-1.47,.83-.51,.29-1.01,.64-1.55,.97-1.08,.66-2.16,1.46-3.32,2.29-2.26,1.72-4.64,3.75-6.92,6.09-2.27,2.37-4.21,4.81-5.85,7.13-.78,1.18-1.55,2.29-2.17,3.39-.32,.55-.65,1.06-.92,1.58-.27,.52-.53,1.02-.78,1.49-.52,.94-.89,1.84-1.26,2.61-.37,.77-.65,1.45-.87,2.01-.21,.52-.39,.94-.53,1.28-.13,.29-.2,.44-.21,.44-.01,0,.03-.17,.13-.47,.12-.35,.27-.78,.45-1.31,.19-.57,.45-1.27,.8-2.05,.35-.78,.7-1.7,1.21-2.65,.24-.48,.5-.99,.76-1.52,.27-.53,.59-1.05,.9-1.6,.61-1.12,1.37-2.24,2.15-3.44,1.63-2.35,3.59-4.82,5.87-7.21,2.31-2.36,4.71-4.4,7-6.11,1.17-.82,2.27-1.62,3.36-2.27,.54-.33,1.05-.67,1.57-.96,.52-.28,1.01-.55,1.49-.81,.94-.54,1.84-.93,2.61-1.3,.77-.38,1.45-.66,2.02-.87,.53-.2,.95-.37,1.3-.5,.3-.11,.46-.16,.46-.15Z"/>
        <path class="cls-10" d="M65.87,379.69s.17-.75,1.06-1.57c.86-.82,2.43-1.58,4.25-1.63,1.82-.05,3.4,.46,4.47,.87,1.08,.43,1.71,.77,1.69,.82-.03,.06-.7-.18-1.79-.53-1.09-.33-2.63-.77-4.36-.73-1.72,.05-3.2,.71-4.06,1.43-.88,.71-1.19,1.38-1.26,1.33Z"/>
        <path class="cls-10" d="M63,382.64c-.12-.07,.96-1.65,1.21-3.93,.28-2.27-.4-4.06-.27-4.1,.05-.02,.29,.4,.5,1.14,.21,.74,.35,1.83,.21,3.01-.14,1.18-.52,2.2-.9,2.88-.37,.68-.71,1.03-.75,1Z"/>
      </g>
      <path class="cls-10" d="M31.75,422.47c.66,11.73,4.2,23.67,9.64,35.73h23.65c5.19-11.95,8.48-23.86,9.06-35.73H31.75Z"/>
      <path class="cls-2" d="M70.27,441.46c0,.12-7.79,.22-17.39,.22s-17.39-.1-17.39-.22,7.79-.22,17.39-.22,17.39,.1,17.39,.22Z"/>
      <path class="cls-2" d="M69.74,445.71c0,.12-7.3,.22-16.3,.22s-16.31-.1-16.31-.22,7.3-.22,16.31-.22,16.3,.1,16.3,.22Z"/>
      <path class="cls-2" d="M41.77,430.17c.12,0,.22,2.44,.22,5.45s-.1,5.45-.22,5.45-.22-2.44-.22-5.45,.1-5.45,.22-5.45Z"/>
      <path class="cls-2" d="M54.44,430.17c.12,0,.22,2.53,.22,5.64s-.1,5.64-.22,5.64-.22-2.53-.22-5.64,.1-5.64,.22-5.64Z"/>
      <path class="cls-2" d="M66.34,430.08c.12,0,.22,2.58,.22,5.75s-.1,5.75-.22,5.75-.22-2.58-.22-5.75,.1-5.75,.22-5.75Z"/>
      <path class="cls-2" d="M73.35,430.17c0,.12-9.13,.22-20.4,.22s-20.4-.1-20.4-.22,9.13-.22,20.4-.22,20.4,.1,20.4,.22Z"/>
    </g>
    <path class="cls-12" d="M440.28,320.74c4.2-1.76,7.18-6.09,7.2-11.19,.03-6.68-5.03-12.12-11.29-12.15-6.26-.03-11.36,5.36-11.39,12.04-.02,5.15,2.98,9.52,7.23,11.29-17.45,2.63-16.66,21.6-16.66,21.6l41.27,.19s.94-19.17-16.36-21.79Z"/>
    <path class="cls-12" d="M254.76,45.02c2.94-.5,5.48-2.82,6.25-6.07,1.01-4.26-1.42-8.48-5.41-9.42-3.99-.94-8.04,1.74-9.05,6-.77,3.28,.5,6.52,2.94,8.27-11.53-.9-13.82,11.32-13.82,11.32l26.31,6.22s3.44-12.1-7.22-16.32Z"/>
    <path class="cls-3" d="M441.41,146.83c2.45-1.47,3.92-4.43,3.47-7.6-.58-4.16-4.21-7.08-8.11-6.54-3.9,.54-6.58,4.35-6,8.51,.45,3.2,2.71,5.65,5.51,6.37-10.61,3.2-8.42,14.92-8.42,14.92l25.67-3.59s-1.14-12.01-12.13-12.07Z"/>
    <polygon class="cls-3" points="29.37 150.45 15.5 139.43 19.34 134.59 28.64 141.98 42.23 126.78 46.84 130.9 29.37 150.45"/>
  </g>
  <g id="Floor">
    <path class="cls-14" d="M449.55,458.56c0,.14-100.14,.26-223.65,.26s-223.67-.12-223.67-.26,100.12-.26,223.67-.26,223.65,.12,223.65,.26Z"/>
  </g>
  <g id="User_Icon" data-name="User Icon">
    <g>
      <path class="cls-9" d="M48.29,166.43l-30.67,15.39c-2.29,.98-3.78,3.23-3.78,5.72v14.35c0,12.82,3.58,25.52,10.94,36.74,5.53,8.42,12.85,19.18,25.05,25.33h5.5c13.57-4.14,23.7-15.17,29.9-24.61,7.36-11.22,10.94-23.92,10.94-36.74v-15.07c0-2.49-1.49-4.74-3.78-5.72l-34.94-14.89c-1.56-.66-7.59-1.16-9.14-.5Z"/>
      <path class="cls-9" d="M47.06,166.93l-34.94,14.89c-2.29,.98-3.78,3.23-3.78,5.72v14.35c0,12.82,3.58,25.52,10.94,36.74,6.19,9.44,15.78,19.16,30.55,25.33,13.57-4.14,23.7-15.17,29.9-24.61,7.36-11.22,10.94-23.92,10.94-36.74v-15.07c0-2.49-1.49-4.74-3.78-5.72l-34.94-14.89c-1.56-.66-3.32-.66-4.88,0Z"/>
      <g>
        <circle class="cls-1" cx="49.49" cy="202.41" r="9.51"/>
        <path class="cls-1" d="M32.13,225.59s4.43-10.56,17.02-10.56,17.72,10.56,17.72,10.56c0,0-5.62,8.3-18.04,7.98-11.25-.29-16.69-7.98-16.69-7.98Z"/>
      </g>
    </g>
  </g>
  <g id="Device">
    <g>
      <g>
        <g>
          <g>
            <path class="cls-13" d="M333.69,458.56H97.24c-6.4,0-11.59-5.37-11.59-11.99V85.14c0-6.62,5.19-11.99,11.59-11.99h236.45c6.4,0,11.59,5.37,11.59,11.99V446.57c0,6.62-5.19,11.99-11.59,11.99Z"/>
            <path class="cls-9" d="M220,441.03c0,5.97-4.93,10.81-11.01,10.81s-11.01-4.84-11.01-10.81,4.93-10.81,11.01-10.81,11.01,4.84,11.01,10.81Z"/>
          </g>
          <path class="cls-9" d="M242.07,93.52h-53.02c-2.04,0-3.7-1.71-3.7-3.83h0c0-2.11,1.66-3.83,3.7-3.83h53.02c2.04,0,3.7,1.71,3.7,3.83h0c0,2.11-1.66,3.83-3.7,3.83Z"/>
        </g>
        <rect class="cls-1" x="93.62" y="100.65" width="243.26" height="321.86"/>
        <rect class="cls-3" x="326.49" y="100.65" width="10.38" height="321.86"/>
        <path class="cls-10" d="M331.68,216.28h0c-1.79,0-3.23-1.45-3.23-3.23v-71.2c0-1.79,1.45-3.23,3.23-3.23h0c1.79,0,3.23,1.45,3.23,3.23v71.2c0,1.79-1.45,3.23-3.23,3.23Z"/>
      </g>
      <path class="cls-10" d="M305.15,173.9H125.79c-2.85,0-5.16-2.31-5.16-5.16h0c0-2.85,2.31-5.16,5.16-5.16h179.36c2.85,0,5.16,2.31,5.16,5.16h0c0,2.85-2.31,5.16-5.16,5.16Z"/>
      <path class="cls-10" d="M279.68,194.66H151.25c-2.85,0-5.16-2.31-5.16-5.16h0c0-2.85,2.31-5.16,5.16-5.16h128.43c2.85,0,5.16,2.31,5.16,5.16h0c0,2.85-2.31,5.16-5.16,5.16Z"/>
      <path class="cls-10" d="M221.7,285.19H122.89c-2.85,0-5.16-2.31-5.16-5.16h0c0-2.85,2.31-5.16,5.16-5.16h98.81c2.85,0,5.16,2.31,5.16,5.16h0c0,2.85-2.31,5.16-5.16,5.16Z"/>
      <path class="cls-10" d="M302.25,263.59H122.89c-2.85,0-5.16-2.31-5.16-5.16h0c0-2.85,2.31-5.16,5.16-5.16h179.36c2.85,0,5.16,2.31,5.16,5.16h0c0,2.85-2.31,5.16-5.16,5.16Z"/>
      <rect class="cls-10" x="140.1" y="322.87" width="167.31" height="10.32" rx="5.16" ry="5.16"/>
      <path class="cls-10" d="M302.25,355.24H122.89c-2.85,0-5.16-2.31-5.16-5.16h0c0-2.85,2.31-5.16,5.16-5.16h179.36c2.85,0,5.16,2.31,5.16,5.16h0c0,2.85-2.31,5.16-5.16,5.16Z"/>
      <path class="cls-10" d="M302.25,377.63H122.89c-2.85,0-5.16-2.31-5.16-5.16h0c0-2.85,2.31-5.16,5.16-5.16h179.36c2.85,0,5.16,2.31,5.16,5.16h0c0,2.85-2.31,5.16-5.16,5.16Z"/>
      <path class="cls-10" d="M302.25,243.44H145.26c-2.85,0-5.16-2.31-5.16-5.16h0c0-2.85,2.31-5.16,5.16-5.16h157c2.85,0,5.16,2.31,5.16,5.16h0c0,2.85-2.31,5.16-5.16,5.16Z"/>
    </g>
  </g>
  <g id="Padlock_Icon" data-name="Padlock Icon">
    <g>
      <g>
        <path class="cls-9" d="M89.89,22.57l-41.72,20.93c-3.12,1.33-5.14,4.39-5.14,7.78v19.52c0,17.44,4.87,34.71,14.88,49.97,7.52,11.45,17.48,26.09,34.07,34.45h7.49c18.46-5.63,32.24-20.64,40.67-33.48,10.01-15.25,14.88-32.53,14.88-49.97v-20.5c0-3.39-2.02-6.45-5.14-7.78l-47.53-20.25c-2.12-.9-10.32-1.58-12.44-.68Z"/>
        <path class="cls-7" d="M87.04,22.57l-41.72,20.93c-3.12,1.33-5.14,4.39-5.14,7.78v19.52c0,17.44,4.87,34.71,14.88,49.97,7.52,11.45,17.48,26.09,34.07,34.45h7.49c18.46-5.63,32.24-20.64,40.67-33.48,10.01-15.25,14.88-32.53,14.88-49.97v-20.5c0-3.39-2.02-6.45-5.14-7.78l-47.53-20.25c-2.12-.9-10.32-1.58-12.44-.68Z"/>
        <path class="cls-9" d="M88.21,23.24l-47.53,20.25c-3.12,1.33-5.14,4.39-5.14,7.78v19.52c0,17.44,4.87,34.71,14.88,49.97,8.42,12.84,21.47,26.05,41.55,34.45,18.46-5.63,32.24-20.64,40.67-33.48,10.01-15.25,14.88-32.53,14.88-49.97v-20.5c0-3.39-2.02-6.45-5.14-7.78l-47.53-20.25c-2.12-.9-4.51-.9-6.63,0Z"/>
      </g>
      <g>
        <path class="cls-3" d="M110.35,92.72h-5.07v-27.59c0-6.49-5.28-11.78-11.78-11.78s-11.78,5.28-11.78,11.78v27.59h-5.07v-27.59c0-9.29,7.56-16.84,16.84-16.84s16.84,7.56,16.84,16.84v27.59Z"/>
        <g>
          <rect class="cls-1" x="70.81" y="73.99" width="45.4" height="35.58" rx="5.81" ry="5.81"/>
          <path class="cls-14" d="M110.4,109.57s.54,0,1.51-.26c.94-.26,2.39-.96,3.37-2.61,.49-.81,.8-1.84,.8-2.99,0-1.17-.01-2.44-.02-3.81-.01-2.74-.02-5.85-.04-9.28-.02-3.44-.03-7.2-.05-11.23-.12-1.94-1.38-3.86-3.3-4.69-.96-.44-1.99-.52-3.11-.48-1.11,0-2.23,0-3.37,0-9.09,0-19.09,.01-29.58,.02-1.25,.01-2.5,.43-3.46,1.21-.96,.78-1.67,1.86-1.94,3.05-.14,.6-.17,1.19-.16,1.84,0,.63,0,1.27,0,1.89,0,1.26,0,2.51,0,3.74,0,4.95-.01,9.72-.02,14.27,.09,2.26-.38,4.59,.79,6.37,1.06,1.8,3.09,2.83,5.06,2.73,4.04,.01,7.81,.02,11.25,.03,6.85,.03,12.41,.06,16.28,.08,1.9,.02,3.39,.04,4.43,.05,.49,.01,.87,.02,1.15,.03,.26,0,.39,.02,.39,.03s-.13,.02-.39,.03c-.28,0-.67,.01-1.15,.03-1.04,.01-2.53,.03-4.43,.05-3.87,.02-9.43,.05-16.28,.08-3.44,0-7.21,.02-11.25,.03-2.08,.12-4.31-.98-5.45-2.93-.59-.95-.88-2.11-.87-3.24,0-1.11,0-2.23,0-3.37,0-4.55,0-9.32-.02-14.27,0-1.24,0-2.48,0-3.74,0-.63,0-1.26,0-1.89-.01-.62,.01-1.31,.17-1.96,.29-1.31,1.07-2.49,2.12-3.34,1.05-.86,2.42-1.31,3.78-1.33,10.49,0,20.48,.01,29.58,.02,1.14,0,2.26,0,3.37,0,1.08-.04,2.29,.05,3.3,.53,2.07,.9,3.42,2.99,3.54,5.08,.03,4.07,0,7.82-.01,11.26-.01,3.43-.03,6.54-.04,9.28,0,1.36-.01,2.63-.02,3.81-.01,1.19-.35,2.27-.88,3.1-1.04,1.69-2.55,2.37-3.52,2.6-1,.24-1.54,.16-1.54,.16Z"/>
        </g>
        <path class="cls-9" d="M96.99,92.71c.89-.89,1.44-2.12,1.44-3.49,0-2.76-2.24-4.99-4.99-4.99s-4.99,2.24-4.99,4.99c0,2.28,1.54,4.19,3.63,4.78l-1.07,4.74h4.75l-.96-4.74c.84-.24,1.59-.69,2.19-1.3"/>
      </g>
    </g>
  </g>
  <g id="Character">
    <g>
      <g>
        <g>
          <g>
            <path class="cls-6" d="M406.71,128.38v40.52c.09,7.01,1.12,18.01-9.97,17.64h0c-9.6-1.04-12.14-10.13-12.22-16.67-.04-3.1-.07-5.69-.1-6.01,0,0-10.5-.86-11.39-11.23-.43-5.01-.47-15.41-.4-24.82,.08-10.1,7.91-18.45,17.99-19.19l1-.07c10.85-.16,15.22,8.97,15.08,19.82Z"/>
            <path class="cls-11" d="M384.43,163.87s6.57-.09,13.23-4.98c0,0-2.74,7.83-13.17,7.65l-.05-2.66Z"/>
          </g>
          <g>
            <path class="cls-14" d="M390.38,132.07c.21,.21,1.4-.75,3.14-.8,1.74-.07,3.04,.81,3.22,.58,.09-.1-.12-.48-.69-.88-.56-.4-1.5-.77-2.58-.73-1.08,.04-1.98,.47-2.49,.91-.52,.44-.69,.83-.59,.93Z"/>
            <path class="cls-14" d="M390.35,136.99c.03,.74,.68,1.33,1.46,1.32,.77-.02,1.38-.63,1.35-1.37-.03-.74-.68-1.33-1.45-1.32-.78,.01-1.38,.63-1.35,1.37Z"/>
            <path class="cls-14" d="M386.03,144.16c0-.09-1-.19-2.63-.28-.41-.01-.8-.06-.89-.34-.12-.29,.02-.74,.18-1.23,.31-1.01,.64-2.08,.98-3.19,1.35-4.54,2.3-8.26,2.11-8.31-.18-.05-1.43,3.58-2.78,8.12-.32,1.12-.63,2.19-.93,3.21-.12,.47-.35,1.02-.09,1.62,.13,.3,.45,.5,.71,.55,.27,.06,.5,.05,.7,.05,1.62-.03,2.63-.1,2.63-.19Z"/>
          </g>
          <path class="cls-13" d="M358.87,118.51c.11-.42,.42-.76,.79-.98,.81-.48,1.75-.42,2.65-.43,2.75-.04,5.49-.88,7.8-2.37,1.08-1.56,2.31-3.03,3.63-4.4,3.14-3.24,5.73-5.45,8.41-6.53,3.46-1.39,9.25-1.96,12.86-1.01,3.61,.95,6.85,3.88,7.35,7.57,2.02-1.71,5.06-1.7,7.53-.71l.06-.03c2.75,.98,4.31,3.88,5.12,6.68,.81,2.8,1.16,5.79,2.64,8.3,.31,.52,.68,1.15,.41,1.7-.21,.42-.75,.6-1.21,.53-.47-.07-.88-.33-1.28-.58,.31,.73,.61,1.47,.92,2.2-.99,.17-2.02,.09-2.99-.2-.58,2.62-1.28,5.61-1.95,7.38-1.15,0-2.2,.08-2.91,.72-.96,.86-1.39,2.49-2.99,1.87-.81-.31-1.56-2.02-1.83-2.85-1.81-5.5-2.41-11.39-1.75-17.14-1.14-1.21-2.51-2.2-4.02-2.9l.12,.11c-2.9-1.01-6.18-2-8.93-.64-2.13,1.06-3.39,3.27-4.98,5.04-3.02,3.35-7.1,5.17-11.61,5.36-.15,2.92,.09,7.05-.06,9.97l-2.46-4.68v.02c-.2-.34-.37-.69-.53-1.03l-.05-.1h0c-.26-.57-.5-1.13-.82-1.68,0,0-.02,.02-.03,.02-1.58,1.4-3.92-.74-2.67-2.44,.25-.34,.54-.64,.88-.89-.72,.68-1.8,1-2.75,.71-.95-.29-1.68-1.25-1.6-2.24,.06-.68,.54-1.28,1.15-1.55-1.28,.1-2.59-.18-3.7-.82-.73-.42-1.45-1.1-1.2-2.02Z"/>
          <path class="cls-14" d="M374.53,132.07c.21,.21,1.4-.75,3.14-.8,1.74-.07,3.04,.81,3.22,.58,.09-.1-.12-.48-.69-.88-.56-.4-1.5-.77-2.58-.73-1.08,.04-1.98,.47-2.49,.91-.52,.44-.69,.83-.59,.93Z"/>
          <path class="cls-14" d="M376.31,136.99c.03,.74,.68,1.33,1.46,1.32,.77-.02,1.38-.63,1.35-1.37-.03-.74-.68-1.33-1.45-1.32-.78,.01-1.38,.63-1.35,1.37Z"/>
          <g>
            <path class="cls-6" d="M406.44,136.14c.17-.09,6.97-2.63,7.26,4.48,.29,7.11-6.9,5.93-6.92,5.73-.02-.2-.34-10.21-.34-10.21Z"/>
            <path class="cls-11" d="M408.84,143.56s.13,.08,.34,.17c.21,.09,.56,.14,.93-.02,.74-.31,1.32-1.52,1.3-2.81,0-.65-.17-1.26-.42-1.76-.24-.51-.59-.86-.97-.91-.38-.07-.64,.17-.72,.37-.09,.2-.04,.34-.07,.36-.02,.02-.16-.11-.11-.41,.02-.14,.1-.31,.26-.46,.17-.15,.41-.23,.68-.21,.55,.02,1.06,.5,1.34,1.05,.31,.55,.5,1.24,.51,1.96,.01,1.43-.67,2.8-1.68,3.14-.49,.15-.92,.02-1.14-.14-.23-.17-.27-.32-.25-.34Z"/>
          </g>
        </g>
        <path class="cls-14" d="M391.09,145.64c.06,.01,.06,.42-.19,1.02-.25,.59-.79,1.36-1.64,1.9-.84,.54-1.78,.72-2.42,.65-.65-.06-1.01-.27-.98-.33,.02-.08,.4,0,.99-.04,.59-.03,1.39-.24,2.14-.72,.76-.48,1.28-1.12,1.59-1.63,.31-.51,.43-.87,.51-.85Z"/>
      </g>
      <g>
        <path class="cls-9" d="M426.9,426.8l2.12,24.04,7.51,18.56c.54,1.34-.23,2.83-1.69,3.24h0c-.82,.23-1.69,.09-2.37-.4-4.29-3.12-19.75-14.6-19.93-16.09-.22-1.94-4.17-25.57-4.17-25.57l18.52-3.77Z"/>
        <path class="cls-14" d="M434.84,472.64l-22.72-19.23,.22,1.78c.15,.97,.17,1.5,.85,2.11,1.82,1.63,7.15,6.61,19.04,15.34,.69,.51,1.78,.26,2.61,0h0Z"/>
        <path class="cls-1" d="M416.59,445.91c.69,.35,1,1.24,.65,1.9-.35,.66-1.3,.96-2,.62-.69-.34-1.1-1.4-.68-2.01,.42-.62,1.57-.92,2.15-.43"/>
        <path class="cls-14" d="M427.83,462.74c.15,.05,.59-1.26,2.03-2.09,1.41-.87,2.86-.67,2.88-.82,.02-.06-.33-.22-.93-.23-.6-.02-1.46,.14-2.24,.61-.79,.47-1.31,1.12-1.55,1.64-.24,.52-.24,.88-.18,.89Z"/>
        <path class="cls-14" d="M430.01,465.77c.13,.09,.86-.77,2.14-1.26,1.27-.51,2.43-.4,2.46-.55,.06-.13-1.23-.52-2.67,.06-1.46,.56-2.07,1.69-1.93,1.75Z"/>
        <path class="cls-14" d="M423.98,458.96c.13,.1,1.25-1.23,3.17-2.15,1.9-.95,3.7-1.05,3.69-1.21,.03-.13-1.91-.28-3.95,.74-2.06,.99-3.04,2.56-2.91,2.62Z"/>
        <path class="cls-14" d="M422.69,451.7c.08,.14,1.43-.56,3.26-.8,1.82-.27,3.33,.02,3.37-.13,.06-.12-1.49-.68-3.45-.39-1.96,.27-3.27,1.22-3.18,1.33Z"/>
        <path class="cls-14" d="M421.87,444.66c.09,.13,1.42-.81,3.37-.92,1.94-.15,3.4,.6,3.47,.46,.04-.05-.28-.33-.9-.59-.62-.26-1.57-.47-2.61-.4-1.05,.07-1.95,.4-2.53,.75-.58,.34-.85,.65-.8,.7Z"/>
        <path class="cls-14" d="M425.04,442.41s.05-.33-.07-.91c-.12-.58-.4-1.41-1.04-2.3-.33-.42-.68-.96-1.43-1.21-.37-.12-.89,0-1.16,.34-.27,.34-.32,.74-.28,1.12,.2,1.52,1.76,2.85,3.6,2.89,1.85,0,3.4-1.14,3.97-2.53,.12-.36,.18-.78-.06-1.17-.24-.39-.78-.5-1.14-.41-.75,.18-1.18,.64-1.59,.99-.8,.75-1.27,1.51-1.53,2.04-.26,.54-.33,.86-.3,.87,.1,.05,.51-1.24,2.1-2.63,.4-.32,.87-.73,1.41-.83,.26-.05,.5,.03,.62,.22,.12,.18,.1,.49,0,.77-.49,1.14-1.91,2.18-3.47,2.15-1.56-.02-2.92-1.19-3.09-2.41-.04-.29,.01-.6,.16-.79,.15-.19,.39-.26,.64-.2,.52,.14,.91,.61,1.23,1,1.27,1.65,1.32,3.03,1.43,2.99Z"/>
      </g>
      <g>
        <path class="cls-9" d="M366.35,428.04l.95,20.35s-21.69,7.74-21.91,11.52l42.05-.31-.09-31.77-21,.21Z"/>
        <path class="cls-10" d="M380.28,446.59c.82,.2,1.39,1.06,1.2,1.83-.18,.77-1.1,1.33-1.92,1.14-.82-.19-1.54-1.2-1.26-1.95,.27-.75,1.39-1.34,2.14-.97"/>
        <path class="cls-14" d="M387.44,459.61l-.14-3.2-40.26,1.49s-1.87,.78-1.64,2.02l42.05-.31Z"/>
        <path class="cls-14" d="M366.61,448.2c0,.19,1.04,.27,2.05,.89,1.03,.59,1.56,1.42,1.75,1.34,.19-.04-.13-1.19-1.37-1.91-1.24-.73-2.48-.49-2.43-.32Z"/>
        <path class="cls-14" d="M362.21,449.95c-.05,.19,.85,.51,1.55,1.32,.73,.79,.91,1.67,1.12,1.66,.19,.03,.33-1.1-.57-2.1-.89-1-2.09-1.07-2.1-.89Z"/>
        <path class="cls-14" d="M359.75,454.93c.19,.04,.46-.93-.07-1.98-.53-1.06-1.5-1.47-1.59-1.31-.11,.16,.51,.72,.94,1.59,.45,.86,.51,1.67,.72,1.69Z"/>
        <path class="cls-14" d="M366.94,443.54c.09,.18,1.03-.1,2.19-.03,1.16,.04,2.07,.4,2.17,.24,.12-.14-.77-.85-2.14-.91-1.37-.07-2.33,.55-2.22,.7Z"/>
      </g>
      <g>
        <g>
          <path class="cls-14" d="M359.03,281.89c.02,1.18,4.88,163.85,4.88,163.85h25.99l5.27-139.15s6.15,72.76,6.15,74.33,5.43,65.61,5.43,65.61l24.1-1.85-1.58-146.51-2.94-21.48-67.29,5.2Z"/>
          <path class="cls-4" d="M397.87,301.44s-.36,.18-1.06,.42c-.69,.24-1.69,.57-2.93,.96l-.24,.08-.02-.23c-.14-1.96-.31-4.57-.46-7.44-.17-3.11-.29-5.93-.35-7.96-.03-1.02-.05-1.85-.05-2.42,0-.57,.02-.89,.05-.89,.04,0,.09,.31,.15,.88,.06,.57,.13,1.39,.21,2.41,.15,2.04,.33,4.85,.5,7.96,.15,2.87,.27,5.49,.33,7.45l-.25-.15c1.26-.35,2.28-.63,2.99-.82,.71-.18,1.11-.27,1.12-.24Z"/>
          <path class="cls-4" d="M395.9,284.52s.08-.13,.35-.21c.26-.08,.69-.11,1.15,.09,.45,.17,.94,.69,.87,1.34-.05,.61-.55,1.28-1.38,1.44-.83,.14-1.58-.29-1.92-.82-.37-.55-.24-1.18,.02-1.54,.26-.39,.61-.59,.86-.68,.26-.09,.41-.07,.41-.04,.04,.07-.59,.19-.95,.87-.17,.33-.22,.79,.06,1.17,.27,.38,.85,.68,1.41,.58,.55-.1,.96-.59,1.01-1.03,.07-.45-.23-.83-.57-1.01-.73-.39-1.3-.09-1.32-.17Z"/>
          <path class="cls-4" d="M407.83,286.19c-.14,.01-.34-.69-.44-1.57-.1-.88-.07-1.61,.07-1.62,.14-.01,.34,.69,.44,1.58,.1,.88,.07,1.61-.07,1.62Z"/>
          <path class="cls-4" d="M409.63,286.03c-.14,0-.26-.75-.27-1.68,0-.93,.11-1.68,.25-1.68,.14,0,.26,.75,.27,1.68,0,.93-.11,1.68-.25,1.68Z"/>
          <path class="cls-4" d="M378.3,287.15c-.14,.01-.36-.83-.49-1.89-.13-1.06-.12-1.92,.02-1.94s.36,.83,.49,1.89c.13,1.06,.12,1.92-.02,1.94Z"/>
          <path class="cls-4" d="M380.49,287.31c-.13,.04-.59-.82-.64-1.98-.06-1.16,.32-2.05,.45-2.02,.14,.03,0,.92,.06,2,.04,1.08,.26,1.96,.12,2Z"/>
        </g>
        <path class="cls-4" d="M372.27,285.13s0,.26-.09,.72c-.08,.46-.25,1.11-.52,1.91-.53,1.59-1.57,3.72-3.22,5.8-1.66,2.07-3.57,3.65-5.08,4.62-.75,.49-1.39,.85-1.85,1.07-.46,.22-.71,.33-.73,.31-.04-.06,.94-.58,2.38-1.61,1.43-1.02,3.27-2.59,4.9-4.63,1.62-2.04,2.68-4.11,3.29-5.65,.61-1.54,.84-2.55,.92-2.53Z"/>
        <path class="cls-4" d="M428.47,296.09s-.28,.08-.79,.12c-.51,.04-1.26,.05-2.18-.04-1.82-.16-4.37-.81-6.66-2.32-2.29-1.51-3.73-3.49-4.44-5-.36-.76-.57-1.4-.68-1.85-.11-.45-.14-.7-.11-.71,.08-.02,.3,.98,1.09,2.43,.77,1.45,2.2,3.33,4.41,4.79,2.21,1.46,4.65,2.13,6.43,2.36,1.79,.24,2.92,.14,2.92,.21Z"/>
        <path class="cls-4" d="M386.12,378.47c-.03,.11-4.34-.82-9.62-2.08-5.28-1.26-9.54-2.37-9.5-2.48,.03-.11,4.34,.82,9.62,2.08,5.28,1.26,9.53,2.37,9.5,2.48Z"/>
        <path class="cls-4" d="M428,372.55c.06,.1-3.69,2.06-8.37,4.37-4.69,2.32-8.54,4.11-8.6,4.01-.06-.1,3.69-2.06,8.37-4.37,4.69-2.32,8.53-4.11,8.6-4.01Z"/>
      </g>
      <g>
        <g>
          <path class="cls-6" d="M346.41,226.81l3.55,4.44v-7.65h11.2s1.24,17.51,.98,21.24c-.09,1.31-.67,3.46-1.37,5.71-1.46,4.66-7.35,6.12-10.85,2.72-1.18-1.14-2.38-2.44-3.5-3.9-4.98-6.4-13.24-21.98-13.24-21.98l8.62-5.21,4.62,4.62Z"/>
          <path class="cls-11" d="M345.7,225.99c-.05,.05,.52,.78,1.46,1.95,.94,1.17,2.25,2.78,3.75,4.53,1.5,1.74,2.91,3.28,4.01,4.32,1.09,1.05,1.86,1.59,1.9,1.54,.05-.06-.62-.7-1.64-1.8-1.02-1.1-2.38-2.66-3.87-4.4-2.96-3.5-5.48-6.26-5.61-6.14Z"/>
        </g>
        <g>
          <polygon class="cls-6" points="371.95 173.01 383.75 168.38 405.5 167.15 415.73 171.04 401.72 178.82 389.64 178.37 371.95 173.01"/>
          <path class="cls-13" d="M358.02,284.12c1.07,.18,72.33,3.21,72.33,3.21l-2.5-64.07-.21-12.58-4.05-38.11s-10.65-3.66-16.09-5.41c0,0-5.72,5.96-16.6,5.8-10.63-.16-12.85-2.55-12.85-2.55l-14.86,5.7s-10.57,3.79-12.39,8.47c-1.77,4.55-5.01,30.55-5.01,30.55h15.41l-.29,45.93-2.89,23.07Z"/>
          <g class="cls-5">
            <polyline points="402.83 198.6 405.04 214.75 415.73 219.53 423.63 212.79 423.63 197.8 402.83 198.6"/>
          </g>
          <path class="cls-14" d="M423.35,203.18c0,.13-4.44,.24-9.92,.24s-9.92-.11-9.92-.24,4.44-.24,9.92-.24,9.92,.11,9.92,.24Z"/>
          <g>
            <path class="cls-14" d="M353.22,191.24s.05,.14,.11,.43c.07,.32,.17,.73,.28,1.24,.27,1.07,.7,2.64,1.42,4.55,.71,1.91,1.71,4.16,2.94,6.68,1.16,2.57,2.21,5.53,3.31,8.73v.03s.01,.04,.01,.04c-.03,3.84-.05,8.04-.08,12.43-.1,9.8-.2,18.67-.27,25.14-.06,3.18-.1,5.77-.13,7.62-.02,.86-.04,1.55-.06,2.07-.02,.47-.04,.72-.05,.72-.02,0-.03-.25-.04-.72,0-.52-.02-1.21-.03-2.07,0-1.85,0-4.44-.01-7.62,.03-6.47,.08-15.34,.13-25.14,.04-4.39,.08-8.59,.11-12.42v.07c-1.07-3.2-2.1-6.17-3.22-8.72-1.2-2.53-2.18-4.81-2.86-6.74-.69-1.93-1.08-3.52-1.31-4.61-.11-.55-.18-.97-.22-1.26-.04-.29-.05-.44-.04-.44Z"/>
            <path class="cls-14" d="M428.77,183.74s.02,.49-.01,1.37c-.04,.96-.08,2.21-.14,3.72-.13,3.22-.3,7.52-.49,12.27-.22,4.75-.41,9.05-.56,12.27-.09,1.51-.16,2.76-.21,3.72-.06,.88-.11,1.36-.14,1.36-.03,0-.04-.49-.04-1.37,.02-.96,.04-2.22,.07-3.72,.08-3.14,.22-7.49,.42-12.28,.2-4.79,.42-9.13,.62-12.27,.1-1.57,.2-2.84,.29-3.71,.09-.88,.16-1.36,.19-1.36Z"/>
            <g class="cls-8">
              <path d="M353.26,193.56c-.35,7.03,2.3,13.84,7,19.09-1.45-6.61-5.07-12.76-7-19.09Z"/>
            </g>
            <g class="cls-8">
              <path d="M384.56,257c3.33-.28,6.33-2.26,8.55-4.76,2.22-2.5,4.22-5.34,5.74-8.32,2.07-4.05,3.09-8.46,3.37-13.08-4.15,11.13-10.24,19.93-17.66,26.15Z"/>
            </g>
          </g>
        </g>
        <g>
          <g>
            <g>
              <path class="cls-10" d="M345.17,186.01c4.39,6.68,22.18,33.72,27.44,41.72,.58,.88-.14,2.03-1.19,1.9l-31.59-3.97c-.34-.04-.64-.22-.84-.5l-30.18-41.22c-.62-.85,.04-2.04,1.09-1.96l32.51,2.4c1.13,.08,2.15,.68,2.77,1.63Z"/>
              <path class="cls-14" d="M345.17,186.01s-.06-.14-.25-.38c-.19-.23-.5-.57-1.02-.86-.51-.31-1.26-.48-2.1-.51-.86-.07-1.84-.15-2.94-.24-4.45-.35-10.85-.85-18.74-1.47-1.98-.15-4.05-.31-6.21-.48-1.08-.08-2.18-.17-3.3-.25-.29-.02-.54-.05-.87-.05-.33,0-.66,.15-.91,.38-.51,.44-.64,1.28-.24,1.86,2.75,3.77,5.69,7.81,8.78,12.05,6.2,8.47,13,17.78,20.15,27.56,.46,.62,.87,1.2,1.36,1.84,.16,.17,.35,.3,.56,.38,.22,.09,.44,.1,.61,.12l1.11,.14c1.48,.19,2.96,.37,4.42,.55,2.93,.37,5.81,.73,8.64,1.08,5.67,.71,11.13,1.39,16.34,2.04,.34,.04,.62,.09,1,.11,.39,0,.78-.16,1.05-.44,.27-.27,.43-.65,.43-1.04,.01-.38-.21-.78-.38-1.01-.7-1.07-1.4-2.12-2.08-3.16-1.37-2.07-2.7-4.09-3.98-6.04-2.57-3.89-4.97-7.52-7.16-10.83-4.38-6.6-7.93-11.94-10.4-15.66-1.23-1.83-2.18-3.25-2.85-4.24-.32-.47-.57-.83-.75-1.1-.17-.25-.26-.37-.27-.36,0,0,.07,.14,.23,.39,.17,.27,.41,.65,.71,1.12,.65,1,1.58,2.45,2.77,4.3,2.44,3.74,5.94,9.12,10.26,15.75,2.17,3.32,4.55,6.96,7.11,10.86,1.28,1.95,2.6,3.97,3.96,6.05,.68,1.04,1.37,2.09,2.07,3.16,.2,.28,.29,.47,.3,.75,0,.26-.11,.52-.3,.7-.18,.19-.44,.29-.7,.29-.27-.01-.63-.07-.95-.11-5.21-.66-10.67-1.35-16.34-2.07-2.83-.36-5.72-.72-8.64-1.09-1.46-.18-2.94-.37-4.42-.56l-1.11-.14c-.2-.03-.36-.04-.49-.09-.14-.05-.26-.14-.36-.25-.44-.6-.88-1.2-1.32-1.8-7.16-9.76-13.98-19.07-20.18-27.53-3.1-4.22-6.05-8.24-8.81-12-.28-.4-.19-.98,.17-1.3,.17-.16,.4-.26,.64-.27,.23,0,.55,.03,.82,.05,1.12,.08,2.22,.16,3.3,.24,2.16,.15,4.23,.3,6.21,.44,7.9,.55,14.3,.99,18.75,1.3,1.1,.07,2.09,.14,2.94,.19,.86,.02,1.56,.16,2.07,.45,1.02,.57,1.29,1.19,1.32,1.15Z"/>
            </g>
            <path class="cls-14" d="M308.8,183.94s.23,.05,.66,.1c.48,.05,1.12,.11,1.92,.19,1.72,.15,4.14,.37,7.14,.63,6.12,.5,14.61,1.19,24.28,1.98l-.19-.11c1.52,2.26,3.09,4.6,4.66,7.02,6.41,9.85,12,18.9,16.23,25.34,2.1,3.23,3.85,5.81,5.06,7.59,.6,.85,1.07,1.53,1.43,2.03,.33,.46,.51,.7,.53,.69,.01-.01-.14-.27-.44-.75-.33-.52-.78-1.21-1.34-2.08-1.19-1.86-2.86-4.47-4.92-7.68-4.15-6.49-9.69-15.57-16.1-25.43-1.57-2.42-3.15-4.77-4.68-7.03l-.07-.1h-.12c-9.68-.73-18.17-1.36-24.29-1.81-3-.2-5.43-.36-7.15-.48-.8-.04-1.44-.08-1.92-.11-.44-.02-.67-.02-.67,0Z"/>
            <g>
              <path class="cls-1" d="M328.39,189.83s0,0,0,0c0,0,0,0-.01,0h.01Z"/>
              <path class="cls-1" d="M327.61,190.3c.08-.38,.43-.53,.78-.47,.37,.11,.57,.2,.85,.48,.28,.28,.41,.77,.15,1.08-.32,.39-.96,.25-1.34-.08-.29-.25-.52-.63-.44-1.01Z"/>
            </g>
          </g>
          <path class="cls-6" d="M342.36,213.68s1.25-2.97-1.92-3.36c-3.16-.38-11.47,0-11.47,0,0,0-4.54,.48-3.58,3.74,0,0-2.68,2.4-1.25,4.99,1.44,2.59,2.01,1.82,2.01,1.82,0,0-.38,3.16,2.01,3.64,0,0,2.6,3.07,4.99,2.88,2.39-.19,12.56-5.08,13.23-6.04,.67-.96,1.63-1.5,1.05-2.57,0,0,1.25-2.81-1.44-3.23,0,0-.19-2.34-3.64-1.86Z"/>
          <path class="cls-11" d="M327.95,214.76c0,.07,.82,.13,2.14,.15,1.32,.03,3.14,.03,5.15,0,2.01-.07,3.84,.01,5.18-.31,1.36-.32,1.9-1.12,1.84-1.13-.06-.07-.63,.57-1.91,.77-1.26,.21-3.1,.08-5.11,.15-2.01,.03-3.83,.09-5.15,.16s-2.13,.15-2.13,.22Z"/>
          <path class="cls-11" d="M330.21,219.55s.23,.14,.69,.24c.46,.1,1.14,.18,1.98,.12,.84-.05,1.82-.23,2.88-.52,1.06-.29,2.19-.7,3.38-1.07,1.19-.37,2.34-.63,3.4-.7,1.04-.05,2.16-.02,2.9-.59,.37-.26,.62-.62,.69-.99,.07-.36,0-.68-.12-.9-.25-.46-.59-.48-.58-.46-.03,.04,.25,.14,.39,.54,.16,.39,.08,1.1-.59,1.49-.65,.44-1.6,.39-2.72,.41-1.12,.05-2.32,.31-3.53,.68-1.18,.39-2.31,.76-3.36,1.1-1.03,.32-1.98,.52-2.78,.62-1.61,.2-2.61-.08-2.63,.01Z"/>
          <path class="cls-11" d="M333.61,223.61c.02,.07,.84-.08,2.13-.41,1.3-.33,3.08-.84,5.02-1.47,1.94-.64,3.68-1.28,4.92-1.78,1.24-.5,1.99-.86,1.97-.93-.05-.14-3.18,.95-7.05,2.21-3.87,1.27-7.03,2.24-6.99,2.39Z"/>
          <path class="cls-11" d="M332.8,227.37c0,.06,.69,.04,1.77-.2,1.08-.23,2.53-.73,4.05-1.43,1.52-.69,2.85-1.4,3.82-1.91,.96-.51,1.55-.85,1.52-.92-.07-.16-2.55,.94-5.55,2.35-2.99,1.43-5.62,1.97-5.6,2.11Z"/>
        </g>
        <g>
          <path class="cls-6" d="M433.82,198.77s-6.46,25.88-14.53,35.43c-7.82,9.25-20.07,5-24.31-6.97-4.24-11.97-11.8-39.31-11.8-39.31l9.28-7.1,16.04,31.08,7.23-21.19,18.09,8.05Z"/>
          <g>
            <g>
              <path class="cls-6" d="M383.61,188.64l-6.81-9.87s-2.26-.53-2.9-.9c-.77-.45-1.53-4.37-1.51-5.14,.02-.76-1.32-2.55-.78-3.06,.54-.5,2.37-.54,2.27-1.28-.02-.16-1.35-1.79-.3-2.99,.38-.43,1.92-.81,1.92-.81l-.11-3.76s2.03-4.45,4.11-2.84c0,0,7.83,6.02,8.62,6.98,.79,.96,3.8,13.49,4.34,15.85"/>
              <path class="cls-11" d="M392.46,180.83s-.02-.23-.1-.66c-.1-.48-.24-1.1-.4-1.88-.37-1.63-.91-4-1.66-6.91-.38-1.45-.79-3.05-1.31-4.75-.14-.42-.27-.85-.45-1.29-.17-.5-.59-.83-.92-1.14-.71-.63-1.46-1.24-2.24-1.87-1.55-1.26-3.2-2.55-4.91-3.88-.44-.31-.81-.72-1.43-.95-.63-.21-1.31,.06-1.77,.42-.94,.75-1.56,1.76-2.09,2.82l-.02,.05v.06c.01,.36,.02,.76,.04,1.15,.03,.88,.05,1.75,.08,2.61l.18-.24c-.47,.12-.93,.27-1.38,.46-.22,.11-.45,.21-.67,.44-.16,.21-.31,.43-.38,.7-.16,.52-.05,1.05,.12,1.5,.08,.23,.19,.44,.31,.65l.17,.3,.04,.06s0-.04,0-.01c0,.02,0,.05-.01,.06-.02,.09-.2,.2-.39,.27-.19,.08-.4,.14-.61,.21-.21,.06-.43,.13-.64,.21-.22,.1-.44,.15-.65,.46-.16,.32-.07,.58-.02,.8,.06,.23,.14,.43,.23,.63,.17,.4,.36,.78,.5,1.15,.07,.19,.12,.36,.12,.53,0,.23,.03,.43,.06,.64,.06,.41,.14,.81,.22,1.21,.17,.79,.36,1.55,.64,2.27,.15,.36,.27,.72,.6,1.05,.38,.28,.71,.34,1.06,.47,.69,.22,1.36,.38,2.02,.54l-.11-.07c2.1,2.99,3.82,5.43,5.04,7.16,.58,.81,1.05,1.46,1.4,1.94,.32,.44,.5,.67,.52,.66,.01-.01-.13-.26-.43-.72-.33-.5-.77-1.16-1.32-2-1.19-1.76-2.86-4.23-4.91-7.26l-.04-.06-.07-.02c-.64-.16-1.31-.33-1.98-.55-.31-.11-.71-.23-.92-.4-.2-.19-.35-.56-.48-.89-.26-.69-.44-1.45-.6-2.22-.08-.39-.15-.78-.2-1.18-.02-.2-.05-.4-.05-.58,0-.24-.07-.48-.14-.68-.15-.41-.34-.79-.5-1.17-.08-.19-.15-.38-.21-.57-.05-.18-.07-.39-.02-.46,.03-.07,.24-.19,.42-.25,.19-.07,.4-.13,.61-.2,.21-.07,.43-.13,.65-.22,.21-.1,.48-.19,.64-.53,.04-.08,.05-.17,.05-.26,0-.03-.01-.11-.04-.18l-.05-.09-.17-.29c-.11-.19-.2-.38-.28-.58-.15-.39-.22-.82-.1-1.2,.04-.19,.16-.36,.28-.52,.1-.11,.31-.22,.5-.31,.41-.18,.86-.32,1.3-.43l.19-.05v-.19c-.03-.86-.06-1.73-.08-2.61-.01-.39-.02-.79-.03-1.15l-.02,.11c.49-.99,1.11-1.99,1.94-2.64,.41-.32,.9-.49,1.34-.35,.42,.14,.85,.55,1.28,.86,1.72,1.33,3.37,2.61,4.92,3.85,.78,.62,1.53,1.23,2.24,1.84,.36,.32,.7,.59,.83,.98,.17,.41,.31,.83,.45,1.25,.53,1.68,.97,3.27,1.36,4.71,.75,2.86,1.36,5.2,1.8,6.86,.2,.77,.37,1.39,.49,1.86,.11,.42,.18,.65,.2,.64Z"/>
            </g>
            <path class="cls-11" d="M375.5,164.6c0,.08,.8,.02,2.03,.14,.62,.05,1.3,.28,2.14,.49,.87,.19,1.82,.09,2.77,.02,1.9-.26,3.51,.55,4.36,1.42,.88,.87,.96,1.71,1.05,1.68,.04,.02,.08-.89-.8-1.91-.43-.49-1.07-.98-1.87-1.32-.8-.36-1.81-.43-2.77-.35-.97,.07-1.87,.17-2.65,.02-.78-.17-1.56-.39-2.2-.39-1.29-.03-2.06,.15-2.06,.2Z"/>
            <path class="cls-11" d="M378.27,164.4c.12,.06,.43-.4,.39-1.05-.04-.65-.41-1.07-.51-1-.12,.07,0,.5,.03,1.02,.04,.52-.04,.97,.09,1.02Z"/>
            <path class="cls-11" d="M373.63,168.55c0,.12,2.68,.24,5.9-.46,.81-.17,1.54-.4,2.17-.27,.63,.11,1.1,.53,1.4,.93,.59,.83,.69,1.53,.77,1.5,.04,0,.08-.71-.49-1.69-.3-.47-.82-.99-1.6-1.17-.78-.17-1.59,.08-2.36,.24-3.16,.69-5.8,.79-5.8,.93Z"/>
            <path class="cls-11" d="M372.59,172.11c0,.06,.56,.12,1.45,0,.89-.1,2.09-.41,3.39-.66,.66-.12,1.28-.22,1.83-.18,.55,.03,1.01,.21,1.31,.48,.64,.54,.57,1.16,.64,1.15,.03,0,.09-.13,.08-.4-.02-.26-.15-.65-.49-1-.33-.35-.89-.61-1.51-.67-.62-.07-1.28,.03-1.95,.15-1.34,.26-2.5,.62-3.36,.8-.85,.19-1.39,.26-1.39,.33Z"/>
            <path class="cls-11" d="M374.92,174.94c-.08,.06,.58,.76,1.8,.75l-.24-.21c.02,.21,.05,.42,.07,.63,.18,1.39,.43,2.51,.56,2.49,.13-.02,.1-1.16-.08-2.54-.03-.21-.06-.41-.09-.63l-.03-.22h-.21c-1.02,.08-1.72-.38-1.79-.27Z"/>
          </g>
        </g>
        <path class="cls-13" d="M423.59,172.56s13.23,3.21,13.2,20.75c-.03,17.48-4,26.21-4,26.21l-24.39-13.27,5.44-13.66,9.74-20.03Z"/>
        <path class="cls-14" d="M432.8,219.53s-.18-.06-.51-.22c-.37-.19-.84-.43-1.41-.72-1.28-.67-3.04-1.6-5.2-2.74-4.44-2.39-10.53-5.67-17.39-9.37l-.2-.11,.08-.21c.42-1.09,.86-2.25,1.31-3.42,1.56-4.05,3.04-7.9,4.4-11.42,.68-1.75,1.33-3.42,1.93-4.98,.58-1.57,1.23-3.01,1.93-4.26,1.37-2.51,3-4.29,4.4-5.09,.69-.42,1.3-.61,1.71-.69,.21-.04,.37-.06,.48-.06,.11,0,.16,0,.16,0,.02,.06-.92,.05-2.25,.91-1.33,.84-2.87,2.6-4.19,5.1-.67,1.24-1.28,2.66-1.85,4.23-.59,1.57-1.22,3.24-1.89,4.99-1.34,3.52-2.81,7.38-4.36,11.43-.45,1.17-.89,2.33-1.31,3.42l-.12-.31c6.83,3.75,12.89,7.09,17.31,9.52,2.13,1.2,3.86,2.17,5.12,2.88,.56,.33,1.01,.59,1.37,.8,.31,.19,.47,.29,.46,.31Z"/>
      </g>
    </g>
  </g>
</svg>