<?xml version="1.0" encoding="utf-8"?>
<!-- Generator: Adobe Illustrator 27.0.0, SVG Export Plug-In . SVG Version: 6.00 Build 0)  -->
<svg version="1.1" id="Layer_1" xmlns="http://www.w3.org/2000/svg" xmlns:xlink="http://www.w3.org/1999/xlink" x="0px" y="0px"
	 viewBox="0 0 191.2 31.3" style="enable-background:new 0 0 191.2 31.3;" xml:space="preserve">
<style type="text/css">
	.st0{clip-path:url(#SVGID_00000027606548792024623690000011758254651383237514_);}
	.st1{fill:#8A1E41;}
</style>
<g>
	<defs>
		<rect id="SVGID_1_" x="-46.8" y="-67" width="314" height="218.4"/>
	</defs>
	<clipPath id="SVGID_00000134216710219928873510000002247461262434594705_">
		<use xlink:href="#SVGID_1_"  style="overflow:visible;"/>
	</clipPath>
	<g style="clip-path:url(#SVGID_00000134216710219928873510000002247461262434594705_);">
		<path class="st1" d="M6,4.8c1.3,0,2.3-1,2.3-2.3S7.3,0.1,6,0.1s-2.3,1-2.3,2.4C3.8,3.8,4.8,4.8,6,4.8 M20.7,26.6
			c-1.3,0-2.3,1-2.3,2.4s1,2.3,2.3,2.3s2.3-1,2.3-2.3S22,26.6,20.7,26.6z M26.2,26.6c-1.3,0-2.3,1.1-2.3,2.4s1,2.3,2.3,2.3
			s2.3-1,2.3-2.3S27.5,26.6,26.2,26.6z M38.1,26.6c-1.2,0-2.3,1.1-2.3,2.3s1,2.4,2.3,2.4s2.3-1.1,2.3-2.4S39.4,26.6,38.1,26.6z
			 M43.9,9.2V7.8h-6.8v8.9c-0.1,1.7-0.6,2.9-1.4,3.7c-0.9,0.9-2,1-2.7,1h-5.1V11c0-1.5,0.3-1.8,1.3-1.8h0.9V7.8h-6.9v13.7h-6.1V10.9
			c0-1.5,0.3-1.8,1.3-1.8h0.9V7.7H11c-6.7,0-11,3.1-11,7.9c0,2.2,1,4.2,2.9,5.8c1.7,1.3,3.8,2.2,5.9,2.3h26c1.6,0,3.2-0.8,4.5-2.2
			c1.4-1.5,2.2-3.4,2.2-5.6v-4.8c0-1.5,0.2-1.8,1.3-1.8L43.9,9.2C43.9,9.2,43.9,9.2,43.9,9.2z M12.7,21.4H9c-1.2,0-2.3-0.6-3.1-1.7
			c-0.9-1.1-1.3-2.5-1.3-4.2c0-2.8,1.5-4.2,2.7-4.8c0.9-0.6,2.1-0.8,3.2-0.8c0.7,0,1.3,0.1,2,0.2L12.7,21.4
			C12.7,21.4,12.7,21.4,12.7,21.4z M79.6,16.7c-0.1,1.7-0.6,2.9-1.4,3.7c-0.7,0.7-1.6,1-2.7,1h-8.9c-1.2-0.2-2.1-0.8-2.7-1.9
			c-0.6-1-0.9-2.5-0.9-4.2c0-3.7,1.5-5.6,4.4-5.6c2.4,0,3.7,1,3.8,3.1l0.1,0.4h1.5v-0.4c0-2.5,0-3.6-1-4.4c-0.9-0.8-2.4-1.2-5-1.2
			S62.3,8,60.7,9.6c-1.4,1.4-2.3,3.4-2.3,5.8s0.9,4.6,2.5,6.1H50.8V11c0-1.4,0.2-1.8,1.3-1.8H53V7.7h-6.7v15.6
			c0,1.2-0.1,2.3-0.5,3.2c-0.5,1.3-1.3,2.3-2.5,3.1c-0.2,0.2-0.4,0.4-0.4,0.6c0,0.1,0,0.2,0.1,0.4s0.4,0.2,0.6,0.2
			c0.1,0,0.3,0,0.4-0.1c0.8-0.2,2.5-0.6,3.9-1.7c1.8-1.3,2.7-3.1,2.8-5.3h26.9c1.8,0,3.5-0.7,4.8-2.1c1.3-1.3,1.9-3.2,1.9-5.4V4
			c0-1.3,0.2-1.8,1.8-1.8h0.4V0.7h-6.8L79.6,16.7L79.6,16.7L79.6,16.7z M87.8,23.6h4.6V3.9c0-1.3,0.1-1.8,1.7-1.8h0.4V0.8l-6.8-0.1
			L87.8,23.6L87.8,23.6z M164.8,4.7c1.3,0,2.3-1,2.3-2.3s-1-2.4-2.3-2.4c-1.3,0-2.3,1.1-2.3,2.4C162.5,3.6,163.6,4.7,164.8,4.7z
			 M143.6,4.7c1.3,0,2.3-1.1,2.3-2.4s-1-2.3-2.3-2.3c-1.3,0-2.3,1.1-2.3,2.3C141.4,3.5,142.4,4.7,143.6,4.7z M126.5,26.5
			c-1.2,0-2.3,1.1-2.3,2.3s1,2.4,2.3,2.4s2.3-1.1,2.3-2.4S127.8,26.5,126.5,26.5z M112.3,4.7c1.3,0,2.3-1,2.3-2.3s-1-2.4-2.3-2.4
			S110,1.1,110,2.4C110,3.6,111.1,4.7,112.3,4.7z M106.8,4.7c1.3,0,2.3-1,2.3-2.3s-1-2.4-2.3-2.4s-2.3,1-2.3,2.4
			C104.5,3.7,105.5,4.7,106.8,4.7z M184.5,0.5v23.1h4.6V3.8c0-1.3,0.1-1.8,1.7-1.8h0.4V0.7L184.5,0.5L184.5,0.5z M176.3,16.6
			c-0.1,1.7-0.6,2.9-1.4,3.7c-0.7,0.7-1.6,1-2.7,1h-5.1V10.9c0-1.5,0.3-1.8,1.3-1.8h0.9V7.7h-6.8v13.7h-6.1
			c-0.4-0.6-0.6-0.9-1.2-1.5l-1.2-1.3c-0.4-0.4-0.9-0.9-1.5-1.6c-1.1-1.2-2.6-2.7-4.5-4.7l-6.2-6.2l-4.8,5l1,1l0.7-0.7
			c0.3-0.3,0.6-0.5,0.8-0.5l0,0c0.4,0,0.7,0.2,1.3,0.9l9.5,9.6h-21.4V10.9c0-1.5,0.3-1.8,1.3-1.8h0.9V7.7h-6.8v13.7h-6.1V10.7
			c0-1.5,0.3-1.8,1.3-1.8h0.9V7.5h-8.3c-6.7,0-11,3.1-11,7.9c0,2.2,1,4.2,2.9,5.8c1.6,1.3,3.8,2.2,5.9,2.3h42.4l0.4,0.5l0.2,0.2
			c0.6,0.7,1.3,1.5,1.7,2.4c0.5,1.2,0.7,2.5,0.3,3.9c-0.1,0.1-0.1,0.4,0.1,0.6c0.1,0.1,0.2,0.2,0.3,0.2h0.1c0.2,0,0.5-0.1,0.7-0.6
			c0.3-0.6,1-1.7,1.3-3.1c0.3-1.4,0.2-2.9-0.2-4.3H174c1.8,0,3.5-0.7,4.8-2.1c1.2-1.3,1.9-3.2,1.9-5.4V3.6c0-1.3,0.2-1.8,1.8-1.8
			h0.4V0.3h-6.8L176.3,16.6L176.3,16.6L176.3,16.6z M113.6,21.3h-3.7c-1.2,0-2.3-0.6-3.1-1.7c-0.9-1.1-1.3-2.5-1.3-4.2
			c0-2.8,1.5-4.2,2.7-4.8c0.9-0.6,2.1-0.8,3.2-0.8c0.7,0,1.4,0.1,2,0.2L113.6,21.3L113.6,21.3L113.6,21.3z M11.5,4.9
			c1.3,0,2.3-1,2.3-2.3s-1-2.4-2.3-2.4S9.2,1.3,9.2,2.6C9.3,3.8,10.3,4.9,11.5,4.9z"/>
	</g>
</g>
</svg>
